<svg width="550" height="500" viewBox="0 0 550 500" xmlns="http://www.w3.org/2000/svg">
  <defs>
    <filter id="shadow" x="-20%" y="-20%" width="140%" height="140%">
      <feGaussianBlur in="SourceAlpha" stdDeviation="10"/>
      <feOffset dx="0" dy="5" result="offsetblur"/>
      <feComponentTransfer>
        <feFuncA type="linear" slope="0.5"/>
      </feComponentTransfer>
      <feMerge> 
        <feMergeNode/>
        <feMergeNode in="SourceGraphic"/> 
      </feMerge>
    </filter>
  </defs>
  <g transform="translate(50, 50)" style="filter:url(#shadow)">
    <path d="M 80 80 C 20 120, 20 280, 80 320 L 220 320 C 280 280, 280 120, 220 80 Z" fill="#FFFFFF"/>
    <path d="M 100 130 C 80 140, 80 180, 100 190 L 100 230 C 80 240, 80 280, 100 290 L 120 290 C 140 280, 140 240, 120 230 L 120 190 C 140 180, 140 140, 120 130 Z" fill="#E0F2F1"/>
    <path d="M 180 130 C 160 140, 160 180, 180 190 L 180 230 C 160 240, 160 280, 180 290 L 200 290 C 220 280, 220 240, 200 230 L 200 190 C 220 180, 220 140, 200 130 Z" fill="#E0F2F1"/>
  </g>
  <g transform="translate(300, 120)">
      <rect x="0" y="0" width="200" height="120" rx="10" fill="white" stroke="#E2E8F0" stroke-width="2"/>
      <rect x="20" y="20" width="160" height="15" rx="5" fill="#F1F5F9"/>
      <rect x="20" y="50" width="100" height="10" rx="5" fill="#E2E8F0"/>
      <rect x="20" y="70" width="140" height="10" rx="5" fill="#E2E8F0"/>
      <rect x="20" y="90" width="80" height="10" rx="5" fill="#E2E8F0"/>
  </g>
    <g transform="translate(280, 280)">
      <rect x="0" y="0" width="220" height="150" rx="10" fill="white" stroke="#E2E8F0" stroke-width="2"/>
      <path d="M20 110L60 70L100 90L140 50L180 70" stroke="#38B2AC" stroke-width="6" fill="none"/>
      <circle cx="60" cy="70" r="5" fill="white" stroke="#38B2AC" stroke-width="2"/>
      <circle cx="100" cy="90" r="5" fill="white" stroke="#38B2AC" stroke-width="2"/>
      <circle cx="140" cy="50" r="5" fill="white" stroke="#38B2AC" stroke-width="2"/>
      <circle cx="180" cy="70" r="5" fill="white" stroke="#38B2AC" stroke-width="2"/>
  </g>
</svg>